<?xml version="1.0" encoding="utf-8"?>
<svg viewBox="232.4928 125.5168 168.571 180.2926" xmlns="http://www.w3.org/2000/svg">
  <path style="fill:#6D4B41;" d="M39.03,70.97c0,0,3.3-0.19,4.66-0.58c1.36-0.39,3.2-1.55,3.2-1.55S59.64,82.18,60.96,83.3 c1.29,1.09,2.81-15.53,2.81-15.53s2.91,0.45,5.63,0.02c3.58-0.57,6.02-1.71,6.02-1.71S73.68,76.31,73,80.19 c-0.43,2.49-0.58,9.41-0.58,9.41l-9.32,7.76l-7.09-4.76c0,0-0.02-1.87-1.07-3.14C51.68,85.52,39.03,70.97,39.03,70.97z" transform="matrix(3.4388198852539062, 0, 0, 3.10788893699646, 98.27568817138672, -79.85250091552734)"/>
  <path style="fill:#6D4B41;" d="M71.54,93.78l7.09-8.54c0,0,2.52,0.19,4.37,0.19c1.84,0,5.05-0.39,5.05-0.39s-5.82,7.86-8.93,11.74 c-3.11,3.88-7.18,8.74-7.18,8.74l-3.88-11.26L71.54,93.78z" transform="matrix(3.4388198852539062, 0, 0, 3.10788893699646, 98.27568817138672, -79.85250091552734)"/>
  <path style="fill:#865B50;" d="M66.5,86.98c-2.9,0.26-10.48,5.63-10.48,5.63s0.39,9.12,0.1,14.27s-2.32,13.56-0.45,15.69 c1.62,1.84,15.24,2.19,17.27,0.05c2.04-2.14,0.06-10.98,0.06-16.71c0-5.73-0.58-16.31-0.58-16.31S69.8,86.69,66.5,86.98z" transform="matrix(3.4388198852539062, 0, 0, 3.10788893699646, 98.27568817138672, -79.85250091552734)"/>
</svg>