<?xml version="1.0" encoding="utf-8"?>
<svg viewBox="134.3356 -129.1442 376.2867 340.8435" xmlns="http://www.w3.org/2000/svg">
  <path style="fill: rgb(139, 192, 43);" d="M 33.414 11.182 C 33.414 11.182 35.866 1.996 41.647 -3.768 C 47.428 -9.53 101.023 15.157 101.023 15.157 C 101.023 15.157 110.386 19.323 115.925 30.359 C 119.648 37.783 121.726 48.755 117.781 62.006 C 108.378 93.565 83.982 89.915 77.626 88.115 C 74.639 87.273 67.365 84.869 67.365 84.869 C 67.365 84.869 50.748 101.982 30.75 88.858 C 15.526 78.867 17.412 63.93 17.412 63.93 C 17.412 63.93 7.162 51.146 11.601 33.34 C 16.948 11.898 33.414 11.182 33.414 11.182 Z" transform="matrix(3.4388198852539062, 0, 0, 3.10788893699646, 98.27568817138672, -79.85250091552734)"/>
  <path style="fill: rgb(139, 192, 43);" d="M 68.091 49.371 C 81.964 46.49 86.292 39.104 90.056 32.258 C 94.202 24.708 93.092 18.379 95.978 18.203 C 98.864 18.027 101.164 24.52 97.996 35.858 C 93.516 51.889 84.305 54.242 84.123 58.557 C 83.982 61.98 93.93 62.219 102.909 56.758 C 115.915 48.831 115.915 30.271 115.915 30.271 C 115.915 30.271 113.604 24.319 109.124 20.178 C 104.645 16.039 101.315 13.875 101.315 13.875 C 101.315 13.875 95.968 -11.166 71.703 -15.319 C 47.438 -19.471 37.46 1.631 37.46 1.631 C 37.46 1.631 38.328 8.476 42.515 16.404 C 45.854 22.733 49.305 22.532 49.012 26.13 C 48.82 28.471 42.797 29.188 36.441 25.765 C 30.65 22.645 29.217 18.379 27.633 18.379 C 26.049 18.379 12.912 27.502 18.391 46.842 C 22.729 62.157 37.066 65.025 39.629 65.579 C 47.146 67.202 51.474 61.074 46.127 56.205 C 40.779 51.335 34.857 48.453 36.158 43.596 C 37.561 38.336 42.565 43.822 48.578 47.069 C 54.521 50.278 61.715 50.706 68.091 49.371 Z" transform="matrix(3.4388198852539062, 0, 0, 3.10788893699646, 98.27568817138672, -79.85250091552734)"/>
</svg>