<?xml version="1.0" encoding="utf-8"?>
<svg viewBox="-50.0955 138.5191 409.2312 343.1653" xmlns="http://www.w3.org/2000/svg" xmlns:xlink="http://www.w3.org/1999/xlink">
  <defs>
    <linearGradient id="linearGradient1478" gradientUnits="userSpaceOnUse" gradientTransform="matrix(0.562541,0,0,0.567972,-14.99112,-11.702371)" x1="26.648937" y1="20.603781" x2="135.66525" y2="114.39767" xlink:href="#linearGradient4689"/>
    <linearGradient id="linearGradient4689">
      <stop style="stop-color:#5a9fd4;stop-opacity:1;" offset="0" id="stop4691"/>
      <stop style="stop-color:#306998;stop-opacity:1;" offset="1" id="stop4693"/>
    </linearGradient>
    <linearGradient id="linearGradient1475" gradientUnits="userSpaceOnUse" gradientTransform="matrix(0.562541,0,0,0.567972,-14.99112,-11.702371)" x1="150.96111" y1="192.35176" x2="112.03144" y2="137.27299" xlink:href="#linearGradient4671"/>
    <linearGradient id="linearGradient4671">
      <stop style="stop-color:#ffd43b;stop-opacity:1;" offset="0" id="stop4673"/>
      <stop style="stop-color:#ffe873;stop-opacity:1" offset="1" id="stop4675"/>
    </linearGradient>
    <radialGradient id="radialGradient1480" gradientUnits="userSpaceOnUse" gradientTransform="matrix(1.7490565e-8,-0.23994696,1.054668,3.7915457e-7,-83.7008,142.46201)" cx="61.518883" cy="132.28575" r="29.036913" xlink:href="#linearGradient2795"/>
    <linearGradient id="linearGradient2795">
      <stop style="stop-color:#b8b8b8;stop-opacity:0.49803922;" offset="0" id="stop2797"/>
      <stop style="stop-color:#7f7f7f;stop-opacity:0;" offset="1" id="stop2799"/>
    </linearGradient>
    <clipPath id="a">
      <path d="M239.03 226.605l-42.13 24.317c-1.578.91-2.546 2.59-2.546 4.406v48.668c0 1.817.968 3.496 2.546 4.406l42.133 24.336c1.575.907 3.517.907 5.09 0l42.126-24.336c1.57-.91 2.54-2.59 2.54-4.406v-48.668c0-1.816-.97-3.496-2.55-4.406l-42.12-24.317c-.79-.453-1.67-.68-2.55-.68-.88 0-1.76.227-2.55.68"/>
    </clipPath>
    <linearGradient id="b" x1="-.348" x2="1.251" gradientTransform="rotate(116.114 53.1 202.97) scale(86.48)" gradientUnits="userSpaceOnUse">
      <stop offset="0.3" stop-color="#3E863D"/>
      <stop offset="0.5" stop-color="#55934F"/>
      <stop offset="0.8" stop-color="#5AAD45"/>
    </linearGradient>
    <clipPath id="c">
      <path d="M195.398 307.086c.403.523.907.976 1.5 1.316l36.14 20.875 6.02 3.46c.9.52 1.926.74 2.934.665.336-.027.672-.09 1-.183l44.434-81.36c-.34-.37-.738-.68-1.184-.94l-27.586-15.93-14.582-8.39c-.414-.24-.863-.41-1.32-.53zm0 0"/>
    </clipPath>
    <linearGradient id="d" x1="-.456" x2=".582" gradientTransform="rotate(-36.46 550.846 -214.337) scale(132.798)" gradientUnits="userSpaceOnUse">
      <stop offset="0.57" stop-color="#3E863D"/>
      <stop offset="0.72" stop-color="#619857"/>
      <stop offset="1" stop-color="#76AC64"/>
    </linearGradient>
    <clipPath id="e">
      <path d="M241.066 225.953c-.707.07-1.398.29-2.035.652l-42.01 24.247 45.3 82.51c.63-.09 1.25-.3 1.81-.624l42.13-24.336c1.3-.754 2.19-2.03 2.46-3.476l-46.18-78.89c-.34-.067-.68-.102-1.03-.102-.14 0-.28.007-.42.02"/>
    </clipPath>
    <linearGradient id="f" x1=".043" x2=".984" gradientTransform="translate(192.862 279.652) scale(97.417)" gradientUnits="userSpaceOnUse">
      <stop offset="0.16" stop-color="#6BBF47"/>
      <stop offset="0.38" stop-color="#79B461"/>
      <stop offset="0.47" stop-color="#75AC64"/>
      <stop offset="0.7" stop-color="#659E5A"/>
      <stop offset="0.9" stop-color="#3E863D"/>
    </linearGradient>
    <linearGradient gradientUnits="userSpaceOnUse" x1="191.605" y1="203.246" x2="191.605" y2="376.493" id="gradient-1" gradientTransform="matrix(0.963011, -0.269458, 0.243525, 0.870322, -139.559588, 90.504243)">
      <stop offset="0" style="stop-color: rgb(115, 27, 201);"/>
      <stop offset="1" style="stop-color: rgb(92, 0, 0);"/>
    </linearGradient>
  </defs>
  <g transform="matrix(0.736768007278, 0.12061701715, -0.102549999952, 0.626408994198, -5.095986550958, 148.838777979267)" style="transform-origin: 55.5807px 67.334px;">
    <path style="fill:url(#linearGradient1478);fill-opacity:1" d="M 54.918785,9.1927389e-4 C 50.335132,0.02221727 45.957846,0.41313697 42.106285,1.0946693 30.760069,3.0991731 28.700036,7.2947714 28.700035,15.032169 v 10.21875 h 26.8125 v 3.40625 h -26.8125 -10.0625 c -7.792459,0 -14.6157588,4.683717 -16.7499998,13.59375 -2.46181998,10.212966 -2.57101508,16.586023 0,27.25 1.9059283,7.937852 6.4575432,13.593748 14.2499998,13.59375 h 9.21875 v -12.25 c 0,-8.849902 7.657144,-16.656248 16.75,-16.65625 h 26.78125 c 7.454951,0 13.406253,-6.138164 13.40625,-13.625 v -25.53125 c 0,-7.2663386 -6.12998,-12.7247771 -13.40625,-13.9374997 C 64.281548,0.32794397 59.502438,-0.02037903 54.918785,9.1927389e-4 Z m -14.5,8.21875012611 c 2.769547,0 5.03125,2.2986456 5.03125,5.1249996 -2e-6,2.816336 -2.261703,5.09375 -5.03125,5.09375 -2.779476,-1e-6 -5.03125,-2.277415 -5.03125,-5.09375 -10e-7,-2.826353 2.251774,-5.1249996 5.03125,-5.1249996 z" id="path1948"/>
    <path style="fill:url(#linearGradient1475);fill-opacity:1" d="m 85.637535,28.657169 v 11.90625 c 0,9.230755 -7.825895,16.999999 -16.75,17 h -26.78125 c -7.335833,0 -13.406249,6.278483 -13.40625,13.625 v 25.531247 c 0,7.266344 6.318588,11.540324 13.40625,13.625004 8.487331,2.49561 16.626237,2.94663 26.78125,0 6.750155,-1.95439 13.406253,-5.88761 13.40625,-13.625004 V 86.500919 h -26.78125 v -3.40625 h 26.78125 13.406254 c 7.792461,0 10.696251,-5.435408 13.406241,-13.59375 2.79933,-8.398886 2.68022,-16.475776 0,-27.25 -1.92578,-7.757441 -5.60387,-13.59375 -13.406241,-13.59375 z m -15.0625,64.65625 c 2.779478,3e-6 5.03125,2.277417 5.03125,5.093747 -2e-6,2.826354 -2.251775,5.125004 -5.03125,5.125004 -2.76955,0 -5.03125,-2.29865 -5.03125,-5.125004 2e-6,-2.81633 2.261697,-5.093747 5.03125,-5.093747 z" id="path1950"/>
    <ellipse style="opacity:0.44382;fill:url(#radialGradient1480);fill-opacity:1;fill-rule:nonzero;stroke:none;stroke-width:15.4174;stroke-miterlimit:4;stroke-dasharray:none;stroke-opacity:1" id="path1894" cx="55.816761" cy="127.70079" rx="35.930977" ry="6.9673119"/>
  </g>
  <g transform="matrix(1, 0, 0, 1, -24.913166046142578, -28.6501407623291)">
    <g transform="matrix(0.122761, 0.070749, -0.065016, 0.113795, 133.307831, -66.691658)" style="transform-origin: 198.659px 279.75px;">
      <path style="fill:#ffffff;stroke-width:1.33333337" d="m 1.33372,109.33203 0.0625,5 c 0.03444,2.75 8.00162,93.80066 17.70507,202.33399 L 36.74387,514 l 79.29492,22.20117 c 43.61211,12.21062 80.19493,22.26265 81.29493,22.33985 1.1,0.0771 38.16591,-9.87392 82.36914,-22.11329 70.87044,-19.6232 80.43786,-22.57875 80.94531,-25.00781 0.707,-3.38418 35.41255,-394.89905 35.37695,-399.08789 l -0.0254,-3 H 198.66575 Z" id="path118"/>
      <path id="path88" d="m 116.66667,537.52932 -80,-22.36163 -1.04545,-5.91717 C 34.69191,503.99074 0,116.51622 0,111.3966 c 0,-1.85291 20.25565,-2.06327 198.66667,-2.06327 188.32331,0 198.66587,0.12147 198.65133,2.33333 -0.0628,9.55335 -35.97164,402.15858 -36.85409,402.94002 -1.11511,0.98746 -155.95653,44.12552 -161.13057,44.89017 -1.46667,0.21676 -38.66667,-9.66863 -82.66667,-21.96753 z M 249.11103,458.5163 c 26.88893,-7.41602 49.27699,-13.86602 49.75121,-14.33333 0.47423,-0.46731 3.62071,-32.34964 6.99216,-70.84964 3.37146,-38.5 6.47022,-72.55 6.88612,-75.66667 L 313.49674,292 h -58.08171 -58.08169 v 24.66666 24.66667 h 31.35873 31.35873 l -0.6238,3 c -0.34309,1.65 -1.67673,15.82935 -2.96364,31.50967 -1.36361,16.6149 -2.98028,29.1501 -3.87486,30.04469 -0.84427,0.84427 -13.62206,4.75671 -28.3951,8.69431 l -26.86006,7.15929 v 25.12935 c 0,17.15185 0.45852,25.12936 1.44436,25.12936 0.7944,0 23.4444,-6.06767 50.33333,-13.4837 z M 312.73228,261 C 311.85092,254.46662 304,166.83717 304,163.53304 c 0,-2.00692 -4.61566,-2.19971 -52.66666,-2.19971 h -52.66667 v 25.79372 25.79373 l 23.66667,0.91218 c 13.01666,0.50169 26.71548,1.26522 30.4418,1.69674 l 6.77512,0.78459 1.64474,20.17619 c 0.9046,11.0969 1.98248,22.42618 2.39528,25.17618 l 0.75055,5 h 24.57795 24.57796 z" style="fill:#eaebec;stroke-width:1.33333337"/>
      <path id="path80" d="M 116.0386,536.2011 36.74387,514 19.10122,316.66666 C 9.39776,208.13333 1.43039,117.08333 1.39595,114.33333 l -0.0626,-5 H 198.66667 396 l 0.0256,3 c 0.0356,4.18884 -34.67072,395.70379 -35.37772,399.08797 -0.50745,2.42906 -10.07454,5.38483 -80.94498,25.00803 -44.20323,12.23937 -81.26951,22.19028 -82.36951,22.11315 -1.1,-0.0772 -37.68263,-10.13076 -81.29473,-22.34138 z m 133.13264,-76.74193 c 27.41084,-7.62076 50.2269,-14.48533 50.70234,-15.2546 0.47542,-0.76927 3.75001,-34.28 7.27684,-74.46829 3.52682,-40.18828 6.70121,-74.11962 7.05418,-75.40295 C 314.81095,292.12877 310.14694,292 229.69083,292 H 144.5353 l 3.62565,-38.33334 c 1.99411,-21.08333 3.67367,-38.38792 3.73235,-38.45464 0.0587,-0.0667 12.5567,-0.46537 27.77337,-0.8859 24.95099,-0.68958 76.40477,1.30088 78.12613,3.02224 0.64308,0.64308 4.87387,42.15037 4.87387,47.81645 0,2.79381 0.37699,2.83519 25.83621,2.83519 h 25.83623 l -0.60884,-5.66667 c -0.33487,-3.11667 -2.52341,-27.26667 -4.86345,-53.66667 l -4.25462,-48 -99.63942,-0.34182 c -79.26871,-0.27194 -99.64168,6.5e-4 -99.65038,1.33333 -0.007,0.92135 -0.58701,6.77516 -1.29109,13.00849 -1.70375,15.08355 -14.697967,160.82251 -14.697967,164.84759 v 3.15241 h 84.783857 84.78387 l -0.75581,5 c -0.4157,2.75 -1.73364,16.7 -2.92876,31 -1.19512,14.3 -2.55774,26.3694 -3.02806,26.82091 -1.24218,1.19249 -51.11936,14.51707 -54.22958,14.48731 -1.44404,-0.0138 -14.32552,-3.22779 -28.62552,-7.14216 l -26,-7.11703 -0.95343,-11.19119 c -0.52439,-6.15514 -1.32215,-14.94117 -1.7728,-19.5245 l -0.81936,-8.33334 h -25.2272 -25.227207 l 0.0559,5 c 0.1044,9.35062 6.16783,72.33478 7.04834,73.21528 1.01833,1.01835 97.912237,28.25511 100.895817,28.36171 1.1,0.0393 24.42706,-6.16372 51.83791,-13.78448 z" style="fill:#f0be25;stroke-width:1.33333337"/>
      <path id="path78" d="M 116.0386,536.2011 36.74387,514 19.10122,316.66666 C 9.39776,208.13333 1.43039,117.08333 1.39595,114.33333 l -0.0626,-5 H 198.66667 396 l 0.0256,3 c 0.0356,4.18884 -34.67072,395.70379 -35.37772,399.08797 -0.50745,2.42906 -10.07454,5.38483 -80.94498,25.00803 -44.20323,12.23937 -81.26951,22.19028 -82.36951,22.11315 -1.1,-0.0772 -37.68263,-10.13076 -81.29473,-22.34138 z m 147.87439,-29.70081 c 34.88119,-9.62484 64.07555,-18.17484 64.87636,-19 C 330.0356,486.21612 360.16146,156.04608 360.04024,145 l -0.0402,-3.66667 H 279.33338 198.66671 V 150.66666 160 H 152 c -36.43861,0 -46.66906,0.36529 -46.6776,1.66666 -0.007,0.91667 -0.58701,6.76667 -1.29109,13 -1.70375,15.08355 -14.697967,160.82251 -14.697967,164.84759 v 3.15241 H 144 198.66667 v 38.66667 c 0,30.05784 -0.37107,38.66108 -1.66667,38.64155 -0.91666,-0.0139 -13.36666,-3.22779 -27.66666,-7.14216 l -26,-7.11703 -0.95343,-11.19119 c -0.52439,-6.15514 -1.32215,-14.94117 -1.7728,-19.5245 l -0.81936,-8.33334 h -25.2272 -25.227207 l 0.0559,5 c 0.15972,14.30148 6.3465,72.67926 7.79746,73.576 0.8819,0.54504 24.075687,7.2095 51.541737,14.80988 l 49.93823,13.81888 v 25.06428 c 0,13.78536 0.41084,25.0643 0.91299,25.0643 0.50213,0 29.45213,-7.87487 64.33333,-17.49971 z M 148.02046,254.02497 c 1.91684,-20.88627 3.7464,-38.21141 4.06569,-38.50032 0.31928,-0.28889 10.93052,-0.81163 23.58052,-1.16161 l 23,-0.63635 V 252.86334 292 H 171.60098 144.5353 Z" style="fill:#e4a126;stroke-width:1.33333337"/>
      <path id="path76" d="M 126.66667,62 V 49.33333 h 18 18 V 24.666666 0 H 175.33334 188 V 37.333333 74.66666 H 157.33334 126.66667 Z M 200,64.66667 v -10 h 16.66667 c 9.16667,0 16.66667,-0.33886 16.66667,-0.75302 0,-0.41416 -7.5,-8.881457 -16.66667,-18.816218 L 200,17.034229 V 8.517114 0 h 34.66667 34.66667 v 9.958961 9.958961 l -16.2745,0.374372 -16.27449,0.374372 16.94116,18.244279 16.94116,18.244275 v 8.75572 8.75572 H 235.33334 200 Z" style="fill:#0e0e0f;stroke-width:1.33333337"/>
    </g>
    <g transform="matrix(0.143607, -0.06883, 0.055127, 0.116018, 88.770027, -29.777714)" style="transform-origin: 181.367px 256px;">
      <g id="layer1" transform="matrix(1, 0, 0, 1, -177.402237, -370.329865)">
        <g id="g3013" transform="translate(119,276.3622)">
          <polygon id="polygon2989" points="437.367,100.62 404.321,470.819 255.778,512 107.644,470.877 74.633,100.62 " style="fill:#264de4"/>
          <polygon id="polygon2991" points="376.03,447.246 404.27,130.894 256,130.894 256,480.523 " style="fill:#2965f1"/>
          <polygon id="polygon2993" points="150.31,268.217 154.38,313.627 256,313.627 256,268.217 " style="fill:#ebebeb"/>
          <polygon id="polygon2995" points="256,176.305 255.843,176.305 142.132,176.305 146.26,221.716 256,221.716 " style="fill:#ebebeb"/>
          <polygon id="polygon2997" points="256,433.399 256,386.153 255.801,386.206 205.227,372.55 201.994,336.333 177.419,336.333 156.409,336.333 162.771,407.634 255.791,433.457 " style="fill:#ebebeb"/>
          <path id="path2999" d="m 160,0 55,0 0,23 -32,0 0,23 32,0 0,23 -55,0 z"/>
          <path id="path3001" d="m 226,0 55,0 0,20 -32,0 0,4 32,0 0,46 -55,0 0,-21 32,0 0,-4 -32,0 z"/>
          <path id="path3003" d="m 292,0 55,0 0,20 -32,0 0,4 32,0 0,46 -55,0 0,-21 32,0 0,-4 -32,0 z"/>
          <polygon id="polygon3005" points="311.761,313.627 306.49,372.521 255.843,386.191 255.843,433.435 348.937,407.634 349.62,399.962 360.291,280.411 361.399,268.217 369.597,176.305 255.843,176.305 255.843,221.716 319.831,221.716 315.699,268.217 255.843,268.217 255.843,313.627 " style="fill:#ffffff"/>
        </g>
      </g>
    </g>
    <g transform="matrix(0.166983, 0.004011, -0.003335, 0.140083, 43.489315, -51.240292)" style="transform-origin: 256px 256px;">
      <title>HTML5 Logo</title>
      <path d="M108.4 0h23v22.8h21.2V0h23v69h-23V46h-21v23h-23.2M206 23h-20.3V0h63.7v23H229v46h-23M259.5 0h24.1l14.8 24.3L313.2 0h24.1v69h-23V34.8l-16.1 24.8l-16.1-24.8v34.2h-22.6M348.7 0h23v46.2h32.6V69h-55.6"/>
      <path fill="#e44d26" d="M107.6 471l-33-370.4h362.8l-33 370.2L255.7 512"/>
      <path fill="#f16529" d="M256 480.5V131H404.3L376 447"/>
      <path fill="#ebebeb" d="M142 176.3h114v45.4h-64.2l4.2 46.5h60v45.3H154.4M156.4 336.3H202l3.2 36.3 50.8 13.6v47.4l-93.2-26"/>
      <path fill="#fff" d="M369.6 176.3H255.8v45.4h109.6M361.3 268.2H255.8v45.4h56l-5.3 59-50.7 13.6v47.2l93-25.8"/>
    </g>
  </g>
  <g transform="matrix(2.5465610027313232, 0, 0, 2.616791009902954, 331.1235656738281, 287.17529296875006)" style="">
    <title>React Logo</title>
    <circle cx="0" cy="0" r="2.05" fill="#61dafb"/>
    <g stroke="#61dafb" stroke-width="1" fill="none">
      <ellipse rx="11" ry="4.2"/>
      <ellipse rx="11" ry="4.2" transform="rotate(60)"/>
      <ellipse rx="11" ry="4.2" transform="rotate(120)"/>
    </g>
  </g>
  <g transform="matrix(2.362550973892, -0.950599133968, 0.719262003899, 1.787601947784, -25.249841132387, 289.548738039725)" style="transform-origin: 15.9995px 16px;">
    <title>django</title>
    <path d="M14.859 0h5.234v24.219c-2.682 0.51-4.656 0.714-6.797 0.714-6.385 0-9.714-2.885-9.714-8.427 0-5.333 3.531-8.797 9-8.797 0.849 0 1.495 0.068 2.276 0.271zM14.859 12.193c-0.568-0.193-1.167-0.286-1.766-0.276-2.651 0-4.177 1.63-4.177 4.49 0 2.786 1.458 4.313 4.146 4.313 0.578 0 1.052-0.031 1.797-0.135v-8.396zM28.417 8.078v12.13c0 4.177-0.302 6.188-1.219 7.917-0.849 1.667-1.974 2.719-4.281 3.875l-4.859-2.313c2.307-1.089 3.432-2.036 4.146-3.5 0.745-1.495 0.984-3.229 0.984-7.781v-10.328zM23.188 0.026h5.229v5.37h-5.229z"/>
  </g>
  <g transform="matrix(0.29831501841545105, 0, 0, 0.283081978559494, 114.60211181640625, 404.98901367187506)" style="">
    <path fill="#689f63" d="M218.647 270.93c-1.46 0-2.91-.383-4.19-1.12l-13.337-7.896c-1.992-1.114-1.02-1.508-.363-1.735 2.656-.93 3.195-1.14 6.03-2.75.298-.17.688-.11.993.07l10.246 6.08c.37.2.895.2 1.238 0l39.95-23.06c.37-.21.61-.64.61-1.08v-46.1c0-.46-.24-.87-.618-1.1l-39.934-23.04c-.37-.22-.86-.22-1.23 0l-39.926 23.04c-.387.22-.633.65-.633 1.09v46.1c0 .44.24.86.62 1.07l10.94 6.32c5.94 2.97 9.57-.53 9.57-4.05v-45.5c0-.65.51-1.15 1.16-1.15h5.06c.63 0 1.15.5 1.15 1.15v45.52c0 7.92-4.32 12.47-11.83 12.47-2.31 0-4.13 0-9.21-2.5l-10.48-6.04c-2.59-1.5-4.19-4.3-4.19-7.29v-46.1c0-3 1.6-5.8 4.19-7.28l39.99-23.07c2.53-1.43 5.89-1.43 8.4 0l39.94 23.08c2.58 1.49 4.19 4.28 4.19 7.28v46.1c0 2.99-1.61 5.78-4.19 7.28l-39.94 23.07c-1.28.74-2.73 1.12-4.21 1.12"/>
    <path fill="#689f63" d="M230.987 239.164c-17.48 0-21.145-8.024-21.145-14.754 0-.64.516-1.15 1.157-1.15h5.16c.57 0 1.05.415 1.14.978.78 5.258 3.1 7.91 13.67 7.91 8.42 0 12-1.902 12-6.367 0-2.57-1.02-4.48-14.1-5.76-10.94-1.08-17.7-3.49-17.7-12.24 0-8.06 6.8-12.86 18.19-12.86 12.79 0 19.13 4.44 19.93 13.98.03.33-.09.65-.31.89-.22.23-.53.37-.85.37h-5.19c-.54 0-1.01-.38-1.12-.9-1.25-5.53-4.27-7.3-12.48-7.3-9.19 0-10.26 3.2-10.26 5.6 0 2.91 1.26 3.76 13.66 5.4 12.28 1.63 18.11 3.93 18.11 12.56 0 8.7-7.26 13.69-19.92 13.69m48.66-48.89h1.34c1.1 0 1.31-.77 1.31-1.22 0-1.18-.81-1.18-1.26-1.18h-1.38zm-1.63-3.78h2.97c1.02 0 3.02 0 3.02 2.28 0 1.59-1.02 1.92-1.63 2.12 1.19.08 1.27.86 1.43 1.96.08.69.21 1.88.45 2.28h-1.83c-.05-.4-.33-2.6-.33-2.72-.12-.49-.29-.73-.9-.73h-1.51v3.46h-1.67zm-3.57 4.3c0 3.58 2.89 6.48 6.44 6.48 3.58 0 6.47-2.96 6.47-6.48 0-3.59-2.93-6.44-6.48-6.44-3.5 0-6.44 2.81-6.44 6.43m14.16.03c0 4.24-3.47 7.7-7.7 7.7-4.2 0-7.7-3.42-7.7-7.7 0-4.36 3.58-7.7 7.7-7.7 4.15 0 7.69 3.35 7.69 7.7"/>
    <path fill="#333" fill-rule="evenodd" d="M94.936 90.55c0-1.84-.97-3.53-2.558-4.445l-42.356-24.37c-.715-.42-1.516-.64-2.328-.67h-.438c-.812.03-1.613.25-2.34.67L2.562 86.105C.984 87.025 0 88.715 0 90.555l.093 65.64c0 .91.47 1.76 1.27 2.21.78.48 1.76.48 2.54 0l25.18-14.42c1.59-.946 2.56-2.618 2.56-4.44V108.88c0-1.83.97-3.52 2.555-4.43l10.72-6.174c.796-.46 1.67-.688 2.56-.688.876 0 1.77.226 2.544.687l10.715 6.172c1.586.91 2.56 2.6 2.56 4.43v30.663c0 1.82.983 3.5 2.565 4.44l25.164 14.41c.79.47 1.773.47 2.56 0 .776-.45 1.268-1.3 1.268-2.21zm199.868 34.176c0 .457-.243.88-.64 1.106l-14.548 8.386c-.395.227-.883.227-1.277 0l-14.55-8.386c-.4-.227-.64-.65-.64-1.106V107.93c0-.458.24-.88.63-1.11l14.54-8.4c.4-.23.89-.23 1.29 0l14.55 8.4c.4.23.64.652.64 1.11zM298.734.324c-.794-.442-1.76-.43-2.544.027-.78.46-1.262 1.3-1.262 2.21v65c0 .64-.34 1.23-.894 1.55-.55.32-1.235.32-1.79 0L281.634 63c-1.58-.914-3.526-.914-5.112 0l-42.37 24.453c-1.583.91-2.56 2.6-2.56 4.42v48.92c0 1.83.977 3.51 2.56 4.43l42.37 24.47c1.582.91 3.53.91 5.117 0l42.37-24.48c1.58-.92 2.56-2.6 2.56-4.43V18.863c0-1.856-1.01-3.563-2.63-4.47zm141.093 107.164c1.574-.914 2.543-2.602 2.543-4.422V91.21c0-1.824-.97-3.507-2.547-4.425l-42.1-24.44c-1.59-.92-3.54-.92-5.13 0l-42.36 24.45c-1.59.92-2.56 2.6-2.56 4.43v48.9c0 1.84.99 3.54 2.58 4.45l42.09 23.99c1.55.89 3.45.9 5.02.03l25.46-14.15c.8-.45 1.31-1.3 1.31-2.22 0-.92-.49-1.78-1.29-2.23l-42.62-24.46c-.8-.45-1.29-1.3-1.29-2.21v-15.34c0-.916.48-1.76 1.28-2.216l13.26-7.65c.79-.46 1.76-.46 2.55 0l13.27 7.65c.79.45 1.28 1.3 1.28 2.21v12.06c0 .91.49 1.76 1.28 2.22.79.45 1.77.45 2.56-.01zm0 0"/>
    <path fill="#689f63" fill-rule="evenodd" d="M394.538 105.2c.3-.177.676-.177.98 0l8.13 4.69c.304.176.49.5.49.85v9.39c0 .35-.186.674-.49.85l-8.13 4.69c-.304.177-.68.177-.98 0l-8.125-4.69c-.31-.176-.5-.5-.5-.85v-9.39c0-.35.18-.674.49-.85zm0 0"/>
    <g clip-path="url(#a)" transform="translate(-78.306 -164.016)">
      <path fill="url(#b)" d="M331.363 246.793l-118.715-58.19-60.87 124.174L270.49 370.97zm0 0"/>
    </g>
    <g clip-path="url(#c)" transform="translate(-78.306 -164.016)">
      <path fill="url(#d)" d="M144.07 264.004l83.825 113.453 110.86-81.906-83.83-113.45zm0 0"/>
    </g>
    <g clip-path="url(#e)" transform="translate(-78.306 -164.016)">
      <path fill="url(#f)" d="M197.02 225.934v107.43h91.683v-107.43zm0 0"/>
    </g>
  </g>
  <g transform="matrix(0.16138100624084473, 0, 0, 0.1503850221633911, 10.401926040649414, 359.5305786132813)" style="">
    <path fill="#00599C" d="M302.107,258.262c2.401-4.159,3.893-8.845,3.893-13.053V99.14c0-4.208-1.49-8.893-3.892-13.052L153,172.175 L302.107,258.262z"/>
    <path fill="#004482" d="M166.25,341.193l126.5-73.034c3.644-2.104,6.956-5.737,9.357-9.897L153,172.175L3.893,258.263 c2.401,4.159,5.714,7.793,9.357,9.896l126.5,73.034C147.037,345.401,158.963,345.401,166.25,341.193z"/>
    <path fill="#659AD2" d="M302.108,86.087c-2.402-4.16-5.715-7.793-9.358-9.897L166.25,3.156c-7.287-4.208-19.213-4.208-26.5,0 L13.25,76.19C5.962,80.397,0,90.725,0,99.14v146.069c0,4.208,1.491,8.894,3.893,13.053L153,172.175L302.108,86.087z"/>
    <g>
      <path fill="#FFFFFF" d="M153,274.175c-56.243,0-102-45.757-102-102s45.757-102,102-102c36.292,0,70.139,19.53,88.331,50.968 l-44.143,25.544c-9.105-15.736-26.038-25.512-44.188-25.512c-28.122,0-51,22.878-51,51c0,28.121,22.878,51,51,51 c18.152,0,35.085-9.776,44.191-25.515l44.143,25.543C223.142,254.644,189.294,274.175,153,274.175z"/>
    </g>
    <g>
      <polygon fill="#FFFFFF" points="255,166.508 243.666,166.508 243.666,155.175 232.334,155.175 232.334,166.508 221,166.508 &#10;&#9;&#9;221,177.841 232.334,177.841 232.334,189.175 243.666,189.175 243.666,177.841 255,177.841 &#9;"/>
    </g>
    <g>
      <polygon fill="#FFFFFF" points="297.5,166.508 286.166,166.508 286.166,155.175 274.834,155.175 274.834,166.508 263.5,166.508 &#10;&#9;&#9;263.5,177.841 274.834,177.841 274.834,189.175 286.166,189.175 286.166,177.841 297.5,177.841 &#9;"/>
    </g>
  </g>
  <g transform="matrix(0.8773810267448425, 0, 0, 0.8127979636192322, 285.83331298828125, 352.73498535156256)" style="">
    <title>logo_Csharp</title>
    <circle class="cls-1" cx="32" cy="32" r="32" style="fill: rgb(5, 147, 12);"/>
    <path class="cls-2" d="M9.82,9A32,32,0,1,0,55,54.18Z" style="fill: rgb(255, 255, 255); opacity: 0.1;"/>
    <path class="cls-3" d="M30.43,43.55a14.78,14.78,0,0,1-7,1.48,11.23,11.23,0,0,1-8.61-3.46,12.78,12.78,0,0,1-3.23-9.09,13.39,13.39,0,0,1,3.64-9.77A12.35,12.35,0,0,1,24.49,19a14.8,14.8,0,0,1,5.94,1v3.15a12,12,0,0,0-6-1.51,9.17,9.17,0,0,0-7,2.9,10.93,10.93,0,0,0-2.7,7.75,10.4,10.4,0,0,0,2.52,7.34,8.58,8.58,0,0,0,6.62,2.73,12.42,12.42,0,0,0,6.57-1.69Z" style="fill: rgb(255, 255, 255);"/>
    <path class="cls-3" d="M52.76,26.46l-.4,1.86H47.76L46.66,33.6H51.6l-.47,1.86H46.29l-1.55,7H42.53l1.51-7H39.64l-1.48,7H36l1.48-7H32.84l.35-1.86h4.66l1.07-5.27H34.05l.37-1.86h4.87l1.48-7.07H43l-1.48,7.07h4.43l1.51-7.07h2.16l-1.48,7.07Zm-7.17,1.86H41.15L40,33.6h4.46Z" style="fill: rgb(255, 255, 255);"/>
  </g>
  <g>
    <path d="M 256.684 205.411 L 256.684 378.658 L 83.975 378.658 L 83.975 205.411 L 256.684 205.411 Z M 85.377 377.164 L 255.282 377.164 L 255.282 206.906 L 85.377 206.906 L 85.377 377.164 Z" style="stroke-width: 5px; stroke: url('#gradient-1'); transform-box: fill-box; transform-origin: 50% 50%;" transform="matrix(0.759682, 0.650295, -0.650295, 0.759682, -0.000003, 0)"/>
    <g transform="matrix(0.017511, 0, 0, 0.01666, 10.611032, 50.226177)" style="">
      <path class="fil2" d="m2304 15464h6528c80 0 133 66 146 145l453 2776h1199c40 0 72 32 72 72 0 94 26 166-37 227-176 169-913 739-1010 818-52 43-117 59-180 57l-432-17-5629-130c-80-2-122-69-145-146l-1110-3657c-24-76 65-145 145-145z" style="fill: rgb(194, 196, 194);"/>
      <path class="fil3" d="m10705 18518l-1086 739 36 245c97-79 834-649 1010-818 49-47 45-101 40-166z" style="fill: rgb(74, 73, 73);"/>
      <path class="fil3" d="m10056 18642h-556l61 379 485-301c19-12 69-78 10-78z" style="fill: rgb(74, 73, 73);"/>
      <path class="fil4" d="m8832 15464h-6528c-80 0-169 69-145 145l763 2514 187 617c1010-1737 3110-2703 5814-3240-24-23-55-36-91-36z" style="fill: rgb(189, 189, 189);"/>
      <path class="fil5" d="m15389 17721c-54-2-78-4-88-44-13-49-3-155-35-259-33-104-108-206-208-285s-226-134-386-156c-161-22-356-11-519 39s-294 139-387 240-147 214-179 320c-32 107-42 209-41 283 0 39 4 71 18 141 27 16 54 31 81 43 103 48 207 64 257 96 49 32 45 80 48 160s14 192 58 321c45 129 122 275 225 366 104 92 234 129 312 148 79 19 105 19 140 42 36 23 80 70 115 102 35 31 62 49 103 57 40 8 95 5 140-20 44-25 77-74 108-73 30 1 59 52 101 73s97 12 140-11 74-61 98-71c24-9 42 8 66 21 25 14 55 22 98 18s99-22 148-60c50-37 94-94 118-106 24-13 29 20 42 41s35 30 74 28c38-2 94-15 142-49 49-33 90-85 127-163 36-77 67-178 78-269 11-90 2-169-24-220-27-51-71-73-98-109-28-37-39-87-63-130s-62-77-136-117-184-84-284-143-191-132-260-175c-62-38-107-52-129-79z" style="fill: rgb(250, 202, 163);"/>
      <path class="fil6" d="m15274 18909c32-54 76-126 114-209s70-175 89-248c20-72 26-124 14-157s-43-47-81-90c-38-42-83-113-95-106-11 7 11 90 20 174s4 168-11 263c-15 94-40 200-62 285s-41 149-40 163c0 15 20-21 52-75zm-451 19c27-43 58-185 65-303s-10-212-59-311c-50-99-133-204-210-252-77-49-149-41-195-22-47 20-69 51-59 121 9 71 51 179 89 261s73 137 110 187c38 51 78 97 110 138s55 76 78 122 45 102 71 59zm977-720c26 14 87 78 110 157 24 78 11 171-43 298s-149 289-216 385c-66 96-105 126-113 113-9-14 14-70 51-149 38-78 90-180 127-290s58-229 68-308c9-78 7-115 2-151s-13-70 14-55zm412 286c-10 58-30 157-65 251s-86 182-127 232c-42 49-74 60-63 24 11-35 65-118 105-211 40-92 65-195 80-279 16-85 21-151 34-166 12-14 30 22 39 48 9 27 8 43-3 101z" style="fill: rgb(235, 188, 150);"/>
      <path class="fil6" d="m13900 18138l2 1 1 1h1v1h1l1 1 1 1h1v1h1l1 1h1v1h1v1h1v1h1v1h1l1 1 1 1 1 1h1v1l1 1 1 1 1 1v1h1v1h1v1h1v1h1v2h1v1h1v1c21 31 20 74 22 135 3 80 14 192 58 321 45 129 122 275 225 366 104 92 234 129 312 148 79 19 105 19 140 42 36 23 80 70 115 102 35 31 62 49 103 57 35 7 81 6 121-11-13-7-27-15-41-22-55-30-101-60-136-91-35-32-58-65-82-112-25-46-50-107-113-162-64-55-165-105-266-186-102-81-203-193-254-314-50-121-49-250-45-356 3-107 9-190 41-261 33-71 92-128 157-180 64-51 134-98 206-126 73-29 149-40 233-19 84 22 175 76 270 118 83 37 168 66 315 84-4-6-6-12-8-20-13-49-3-155-35-259-33-104-108-206-208-285-25-20-51-38-79-54l-1-1-3-2-2-1-2-1-4-2-4-2-1-1-3-2-3-1-5-3h-1l-4-2-1-1-5-3-2-1-4-1-1-1-4-2h-1l-5-3-3-1-3-2h-1l-4-2h-1l-4-2-2-1-2-1-4-2-5-2h-1l-3-2-3-1-6-2h-1l-4-2h-1l-4-2-2-1-5-2h-2l-5-2-3-1-1-1-2-1-3-1-4-1h-1l-5-2-4-1-2-1-3-1-4-1-1-1-5-1-5-2h-2l-3-1-3-1h-2l-5-2-5-1-2-1-3-1-3-1h-2l-5-1-5-2h-2l-3-1-4-1h-1l-5-1h-1l-5-2h-2l-3-1-4-1h-1l-6-1-5-1h-2l-3-1-4-1h-2l-5-1h-1l-6-2h-4l-4-1h-1l-6-1-6-1h-1l-4-1h-6l-5-1c-161-22-356-11-519 39h-2l-1 1h-2l-1 1h-2l-1 1h-2l-1 1h-2l-1 1h-1l-3 1h-1l-2 1h-2v1l-4 1h-1l-1 1h-2l-1 1h-2l-2 1h-1v1h-3l-1 1h-1l-1 1h-2l-1 1h-2l-2 1h-1v1h-1c-139 52-252 133-334 222-93 101-147 214-179 320-32 107-42 209-41 283 0 39 4 71 18 141 27 16 54 31 81 43 103 47 205 64 255 95z" style="fill: rgb(235, 188, 150);"/>
      <path class="fil7" d="m10992 12369c-194-40-434-51-619-68-186-16-316-38-384-68s-75-67-50-90c26-24 83-32 125-74s68-117 90-172 40-91 58-135c17-44 35-97 51-212 17-116 32-295 10-394s-81-119-92-167c-11-47 26-122 14-207s-74-179-98-311c-24-131-11-298-33-441-22-142-79-259-191-381-111-122-277-250-411-341-135-90-238-143-323-179-85-37-151-57-244-75-92-19-211-37-354-27-142 10-307 48-495 129-187 82-396 207-557 367s-274 354-329 512c-55 157-53 279-65 409s-39 269-24 405c14 137 69 272 96 358 26 86 24 123 24 185s2 148 15 261c14 114 38 255 58 387s35 256 24 335c-11 80-49 115-67 150-19 35-19 71-36 107-16 36-49 74-41 133 7 60 56 142 65 215 8 74-22 140-104 202s-214 119-409 198c-195 78-453 177-590 251s-152 122-183 155-77 51-122 80c-45 28-90 68-118 200-29 133-42 358-52 547-10 190-17 344-65 431-49 87-139 107-184 137s-45 69-61 202c-2 23-6 49-10 81h3521c36 0 67 13 91 36 29 27 48 66 55 109l410 2514h3115c9-36 11-72 13-109 9-180 13-400 13-644 0-243-4-510 1-630 6-120 21-94 77-51 57 43 154 103 173 168 20 65-37 135-44 197-6 62 38 115 118 172 81 57 198 119 259 170 62 50 69 90 96 162 28 71 76 175 152 267 57 67 128 128 203 175-14-70-18-102-18-141-1-74 9-176 41-283 32-106 86-219 179-320 98-107 221-182 354-229 189-66 399-76 595-43 238 40 478 202 551 434 32 104 22 210 35 259 2 8 4 14 8 20 13 21 37 22 80 24-2-3-5-7-7-11-18-34-4-89 11-201 16-111 33-279 14-437-18-159-73-309-196-433-122-123-312-220-443-301-131-80-204-144-285-334-82-189-172-505-308-792-136-288-316-548-566-889-249-340-566-762-814-1034s-427-396-634-495-443-174-635-246c-192-71-340-140-534-179z" style="fill: rgb(230, 230, 230);"/>
      <path class="fil8" d="m9646 14825c-72-255-103-317-128-358-25-42-43-62-44-82 0-19 17-37 17-71 0-35-17-87-23-136-5-49 1-95 48-98s134 38 238 106c103 69 223 165 238 166s-75-93-173-197c-98-103-204-217-306-302-101-86-198-143-255-163-57-21-73-4-102 17-30 21-71 46-119 47-47 0-100-24-137-29s-58 9-103 82c-44 73-113 204-146 284s-31 108-7 121 69 9 117 46c48 36 99 112 131 184s45 139 21 242-84 242-119 378c-24 93-35 184-59 402h102c36 0 67 13 91 36 29 27 48 66 55 109l410 2514h821c-3-24-8-53-13-87-21-148-47-404-91-765-44-362-106-829-193-1287-87-457-200-905-271-1159z" style="fill: rgb(58, 62, 74);"/>
      <path class="fil9" d="m9448 13848c-110-46-212-27-269 48-56 75-67 206-61 298s29 145 81 172 132 28 183 35 71 21 38 29c-33 9-120 14-150 96-29 82-2 242 39 395 40 153 93 300 121 379 29 78 33 89 37 124 4 34 7 91-45-4-52-94-160-341-219-527-58-186-67-311-103-393-37-83-101-124-159-157-43-24-82-45-137-61-9-9-18-17-26-24-48-37-94-33-117-46-24-13-26-41 7-121s101-211 146-284 66-87 102-82c37 5 90 29 138 29 47-1 89-26 118-47s46-38 103-17c56 20 153 77 255 163 52 43 105 94 157 148-71-51-157-119-239-153z" style="fill: rgb(39, 42, 51);"/>
      <path class="fil5" d="m9989 12116c-76 20-96 21-115 103-20 89-37 274-76 447-38 173-98 334-177 468-80 133-179 239-275 320-96 82-188 139-304 168s-255 29-343 23c-88-5-126-16-190 82s-154 305-237 480c-82 176-157 319-226 498-68 178-130 392-182 584-16 61-31 119-52 175h-1529c147-157 278-298 436-513 165-227 359-535 476-749s157-333 204-426c48-92 103-158 83-281-20-122-115-301-180-419-64-116-99-174-140-401 8-15 17-29 23-43 17-36 17-72 36-107 18-35 56-70 67-150 11-79-4-203-24-335s-44-273-58-387c-13-113-15-199-15-261s2-99-24-185c-27-86-82-221-96-358-15-136 12-275 24-405s10-252 65-409c55-158 168-352 329-512s370-285 557-367c188-81 353-119 495-129 143-10 262 8 354 27 93 18 159 38 244 75 85 36 188 89 323 179 134 91 300 219 411 341 112 122 169 239 191 381 22 143 9 310 33 441 24 132 86 226 98 311s-25 160-14 207c11 48 70 68 92 167s7 278-10 394c-16 115-34 168-51 212-18 44-36 80-58 135s-48 130-90 172c-23 23-51 36-75 47z" style="fill: rgb(250, 202, 163);"/>
      <path class="fil6" d="m9358 9580c-214 192-313 388-474 531-161 142-383 230-576 275-193 46-356 48-453 138-97 91-128 269-167 448-38 178-85 357-108 507s-23 271-4 376c18 104 56 193 150 229 93 36 243 21 358 9s194-21 256-98c61-77 105-223 121-221 15 2 2 152-5 266-6 114-6 191 29 262 35 72 106 138 148 180s55 60 20 43c-36-17-119-67-197-130-77-63-147-138-220-179-73-40-148-47-227-45s-163 13-233 35c-69 22-124 56-166 47s-71-60-110-192c-40-132-91-346-126-461s-55-130-83-132c-23-1-51 7-98 11-2-33-2-62-2-87 0-62 2-99-24-185-27-86-82-221-96-358-15-136 12-275 24-405s10-252 65-409c55-158 168-352 329-512s370-285 557-367c188-81 353-119 495-129 143-10 262 8 354 27 93 18 159 38 244 75 85 36 188 89 323 179 40 27 82 57 125 89-77 59-159 121-229 183zm-1792 2824c10 12-28 77-40 160s1 185 41 313 106 282 142 399c35 117 41 196 11 257-30 60-95 102-170 195-76 92-162 236-263 451-100 215-216 501-357 834-62 148-130 305-208 451h-439c147-157 278-298 436-513 165-227 359-535 476-749s157-333 204-426c48-92 103-158 83-281-20-122-115-301-180-419-64-116-99-174-140-401 8-15 17-29 23-43 17-36 17-72 36-107 18-35 56-70 67-150 3-23 4-51 3-82l6 33c14 85 35 156 60 178 26 22 57-4 100-38 44-34 100-74 109-62zm429 285c38-13 98-55 105-80 8-24-36-32-60-46-24-15-29-36-29-67 0-32 5-73-4-70-9 4-31 54-50 67-20 13-36-10-74-38-37-28-96-61-99-52-3 8 49 59 81 110 31 52 44 104 58 138 15 34 33 50 72 38zm518 472c-12-69-15-119 11-145 25-26 78-28 88-43 10-16-23-44-52-87-29-42-53-99-67-116-13-18-17 3-17 49s4 116-5 173c-8 58-28 102-54 113-26 12-58-9-84-36s-47-60-51-113c-3-54 11-128 12-191 2-62-11-114-20-104-9 11-16 83-27 130-12 46-29 66-55 71-25 6-61-3-58 18 2 21 41 72 99 132s134 129 193 210c59 80 101 172 119 249s12 140 3 180c-4 14-8 25-8 35 47-54 86-45 159-41 88 6 227 6 343-23s208-86 304-168c83-70 167-158 240-266-48 31-110 82-170 129-112 87-220 161-331 200-110 40-224 45-310 21s-144-78-185-149-64-160-77-228z" style="fill: rgb(235, 188, 150);"/>
      <path class="fil10" d="m10212 11040c-11-4-19-7-30-5-23 4-54 30-86 66-31 37-63 85-80 152-16 67-17 154-21 233-3 79-9 149-25 215-17 66-44 126-61 67s-24-237-39-387c-16-150-40-271-81-370s-98-175-124-271-20-211-44-337c-24-125-77-259-152-367s-172-190-250-243-138-77-192-26c-54 50-102 176-220 281s-305 188-512 215c-206 26-431-5-578-54-148-50-219-118-269-94-51 24-82 141-78 263 5 121 45 246 76 348 32 101 57 178 27 239s-114 105-170 173c-43 53-70 121-112 202-1-37-6-74-24-133-27-86-82-221-96-358-15-136 12-275 24-405s10-252 65-409c55-158 168-352 329-512s370-285 557-367c188-81 353-119 495-129 143-10 262 8 354 27 93 18 159 38 244 75 85 36 188 89 323 179 134 91 300 219 411 341 112 122 169 239 191 381 22 143 9 310 33 441 24 132 86 226 98 311s-25 160-14 207c4 20 16 34 31 51z" style=""/>
      <path class="fil11" d="m8662 9205c228-19 370 24 494 89 125 66 232 154 293 240 60 86 75 170 94 256s43 174 8 165c-35-10-130-117-252-241-123-124-273-265-382-325-110-61-180-41-266-11-87 29-190 69-275 112s-151 89-253 127c-101 38-238 68-210 75 29 8 221-8 397-43 175-34 333-88 357-66s-85 120-208 183c-123 62-260 90-410 101s-315 6-321 38c-7 32 144 101 309 143 165 43 343 58 379 83 35 24-73 57-232 53s-368-45-512-74c-144-30-222-49-288-73-65-23-118-52-78-90s174-85 267-111c93-25 146-28 107-37s-171-23-165-93 150-196 378-299 541-184 769-202z" style=""/>
      <path class="fil12" d="m5959 13964c88 24 225 77 351 163 127 86 244 205 326 278 81 72 127 99 90 29-38-69-159-234-242-377-82-142-126-261-84-244 41 16 169 168 269 293 99 124 169 221 242 200 73-20 148-159 206-330 59-171 101-374 66-605-10-71-27-144-47-215 58-54 80-112 73-176-9-73-58-155-65-215-5-36 6-65 18-90 41 227 76 285 140 401 65 118 160 297 180 419 20 123-35 189-83 281-47 93-87 212-204 426s-311 522-476 749c-158 215-289 356-436 513h-4c39-38 73-75 13-94s-214-19-363-26-292-20-304-43c-13-23 107-56 236-73 129-16 267-16 360-23s139-20 119-53-106-86-181-151-139-142-142-176c-3-35 54-26 137 21 82 46 190 130 272 149 82 20 137-24 184-72 48-49 87-102 74-192s-79-218-230-333-387-216-512-289c-124-73-138-117-124-141 13-24 52-29 141-4zm4152-1697c29 85 116 171 178 254 90 122 128 239 124 430-3 190-47 455-100 629s-114 258-145 213-31-220 3-413c34-192 102-404 87-577s-115-308-255-416c-47-37-99-70-140-104 3-25 7-47 11-64 19-82 39-83 115-103-20 9-38 16-50 27-25 23-18 60 50 90 29 13 70 24 122 34zm1078 1042c130 227 332 562 487 1023 154 461 260 1047 264 1526 5 478-92 848-68 981 24 132 170 26 203 103 33 78-46 338-115 547-68 210-125 368-247 596-6 12-13 25-20 38h810c9-36 11-72 13-109 9-180 13-400 13-644 0-243-4-510 1-630 6-120 21-94 77-51 57 43 154 103 173 168 20 65-37 135-44 197-6 62 38 115 118 172 81 57 198 119 259 170 62 50 69 90 96 162 28 71 76 175 152 267 57 67 128 128 203 175-14-70-18-102-18-141-1-74 9-176 41-283 16-52 37-106 65-158 54-182 132-401 197-547 76-169 133-239 38-134-95 106-341 388-480 501-139 112-170 55-153-49 18-103 84-253 170-370s192-201 119-196c-72 4-324 97-510 122-185 26-306-15-239-77 66-61 318-144 564-200 245-57 483-88 476-121-6-33-258-68-483-66-224 2-423 42-590 11-168-31-305-132-402-318-97-185-154-454-152-701s64-471 141-677c77-205 170-390 208-584 37-194 19-397-20-359-40 37-102 315-172 536-71 220-150 383-197 573-46 189-59 406-50 633s39 465 22 443c-18-22-84-304-139-642-55-337-99-730-119-1085s-16-672-31-718c-15-47-51 178-57 403-7 225 15 450-27 410-42-39-148-344-295-615-148-271-338-509-404-569-66-59-9 60 122 287z" style="fill: rgb(204, 204, 204);"/>
      <path class="fil13" d="m12302 18746c180 31 484 90 703 134 219 45 352 73 435 101 84 27 117 54 128 84 11 29 0 62-66 111-67 48-188 112-314 160-125 48-255 80-392 86s-280-14-527-74c-247-61-597-162-796-236-198-74-245-120-257-157-13-36 8-62 115-96 108-34 302-74 430-100 128-25 189-35 248-40 58-4 113-3 293 27z" style="fill: rgb(36, 36, 36);"/>
      <path class="fil14" d="m11278 18878c115 32 263 72 436 115 276 70 615 152 831 195 217 43 312 47 435 29 122-19 274-61 382-96 87-28 146-52 191-81-19-20-53-39-113-59-83-28-216-56-435-101-219-44-523-103-703-134-180-30-235-31-293-27-59 5-120 15-248 40-128 26-322 66-430 100-21 7-39 13-53 19z" style="fill: rgb(211, 210, 216);"/>
      <path class="fil15" d="m13005 18880c-173-34-398-79-574-111 129 137 216 282 231 440 139 23 219 23 318 8 122-19 274-61 382-96 87-28 146-52 191-81-19-20-53-39-113-59-83-28-216-56-435-101z" style="fill: rgb(196, 195, 199);"/>
    </g>
  </g>
</svg>