<?xml version="1.0" encoding="utf-8"?>
<svg viewBox="479.1747 129.2247 81.178 119.0449" xmlns="http://www.w3.org/2000/svg">
  <g id="Layer_7" transform="matrix(0.1773410141468048, 0, 0, 0.1773410141468048, 406.5530090332031, 127.41287231445312)">
    <path fill="#239e46" fill-rule="evenodd" stroke="#239e46" stroke-width="1" stroke-linecap="round" stroke-linejoin="round" d="M 555.379 485.597 C 555.379 485.597 555.379 485.597 555.379 485.597 C 606.045 484.519 673.600 483.082 724.266 482.004 C 724.266 482.004 724.266 482.004 724.266 482.004 C 746.472 454.838 779.037 420.786 798.288 391.452 C 818.374 360.846 841.997 317.492 854.134 282.955 C 859.050 268.965 863.518 249.492 865.021 234.740 C 867.513 210.281 869.331 176.425 862.429 152.827 C 857.030 134.367 843.034 111.757 830.286 97.354 C 814.541 79.566 787.481 61.668 766.688 50.181 C 750.623 41.305 727.256 33.362 709.830 27.602 C 695.460 22.852 675.842 17.977 661.112 14.501 C 657.808 13.721 653.404 12.630 650.041 12.166 C 647.376 11.799 643.779 11.359 641.096 11.546 C 621.880 12.887 597.253 21.741 579.019 27.951 C 547.117 38.816 503.582 53.231 475.823 72.343 C 460.008 83.232 440.124 100.827 430.278 117.311 C 419.525 135.314 413.502 163.666 410.928 184.476 C 408.491 204.172 409.161 231.139 413.084 250.594 C 420.213 285.955 440.373 330.718 458.360 361.987 C 481.866 402.850 555.370 485.585 555.379 485.597 C 555.379 485.597 555.379 485.597 555.379 485.597 Z"/>
    <path fill="#f6f4db" fill-rule="evenodd" stroke="none" d="M 743.099 441.840 C 735.454 452.627 724.250 466.263 716.172 476.730 C 716.170 476.731 698.651 478.323 691.142 479.006 C 691.145 479.000 713.683 437.441 722.240 419.085 C 735.391 390.878 751.714 352.618 761.682 323.136 C 767.879 304.807 775.210 279.962 778.748 260.940 C 782.641 240.009 785.527 211.607 785.718 190.318 C 785.872 173.085 784.408 149.994 781.312 133.040 C 778.887 119.758 774.102 102.239 768.895 89.781 C 764.504 79.276 757.256 65.733 750.419 56.628 C 744.161 48.295 733.363 39.297 726.054 31.870 C 734.885 34.479 747.054 36.875 755.490 40.567 C 766.085 45.205 779.517 53.206 788.484 60.512 C 795.168 65.958 803.005 74.545 808.182 81.441 C 816.268 92.212 825.736 107.780 830.588 120.344 C 835.818 133.883 838.989 153.233 840.782 167.636 C 842.641 182.575 843.557 202.769 842.521 217.788 C 841.507 232.494 838.071 252.001 834.114 266.201 C 826.165 294.727 810.558 331.346 796.952 357.647 C 783.175 384.278 760.437 417.378 743.099 441.840 M 726.054 31.870 C 726.054 31.870 726.054 31.870 726.054 31.870 Z"/>
    <path fill="none" stroke="#f6f4db" stroke-width="1" stroke-linecap="round" stroke-linejoin="round" d="M 716.172 476.730 C 716.172 476.730 716.172 476.730 716.172 476.730 C 724.250 466.263 735.454 452.627 743.099 441.840 C 760.437 417.378 783.175 384.278 796.952 357.647 C 810.558 331.346 826.165 294.727 834.114 266.201 C 838.071 252.001 841.507 232.494 842.521 217.788 C 843.557 202.769 842.641 182.575 840.782 167.636 C 838.989 153.233 835.818 133.883 830.588 120.344 C 825.736 107.780 816.268 92.212 808.182 81.441 C 803.005 74.545 795.168 65.958 788.484 60.512 C 779.517 53.206 766.085 45.205 755.490 40.567 C 747.054 36.875 734.885 34.479 726.054 31.870 C 726.054 31.870 726.054 31.870 726.054 31.870 C 733.363 39.297 744.161 48.295 750.419 56.628 C 757.256 65.733 764.504 79.276 768.895 89.781 C 774.102 102.239 778.887 119.758 781.312 133.040 C 784.408 149.994 785.872 173.085 785.718 190.318 C 785.527 211.607 782.641 240.009 778.748 260.940 C 775.210 279.962 767.879 304.807 761.682 323.136 C 751.714 352.618 735.391 390.878 722.240 419.085 C 713.683 437.441 691.145 479.000 691.142 479.006 C 691.142 479.006 691.142 479.006 691.142 479.006 C 698.651 478.323 716.170 476.731 716.172 476.730 "/>
    <path fill="#f6f4db" fill-rule="evenodd" stroke="none" d="M 540.087 442.901 C 547.862 453.695 559.242 467.325 567.451 477.792 C 567.454 477.792 585.256 479.385 592.887 480.067 C 592.884 480.061 569.985 438.513 561.285 420.147 C 547.929 391.955 531.339 353.701 521.203 324.198 C 514.909 305.878 507.457 281.035 503.860 262.001 C 499.906 241.079 496.970 212.672 496.777 191.380 C 496.620 174.145 498.111 151.049 501.254 134.102 C 503.720 120.810 508.589 103.286 513.872 90.843 C 518.339 80.322 525.717 66.778 532.649 57.689 C 539.019 49.337 549.981 40.359 557.409 32.931 C 548.435 35.540 536.078 37.930 527.495 41.629 C 516.747 46.261 503.095 54.249 493.966 61.573 C 487.189 67.011 479.217 75.593 473.949 82.502 C 465.749 93.256 456.115 108.816 451.178 121.406 C 445.876 134.927 442.641 154.288 440.820 168.697 C 438.932 183.633 438.000 203.831 439.052 218.849 C 440.083 233.562 443.579 253.072 447.596 267.263 C 455.679 295.822 471.552 332.435 485.361 358.709 C 499.375 385.375 522.482 418.457 540.087 442.901 M 557.409 32.931 C 557.409 32.931 557.409 32.931 557.409 32.931 Z"/>
    <path fill="none" stroke="#f6f4db" stroke-width="1" stroke-linecap="round" stroke-linejoin="round" d="M 567.451 477.792 C 567.451 477.792 567.451 477.792 567.451 477.792 C 559.242 467.325 547.862 453.695 540.087 442.901 C 522.482 418.457 499.375 385.375 485.361 358.709 C 471.552 332.435 455.679 295.822 447.596 267.263 C 443.579 253.072 440.083 233.562 439.052 218.849 C 438.000 203.831 438.932 183.633 440.820 168.697 C 442.641 154.288 445.876 134.927 451.178 121.406 C 456.115 108.816 465.749 93.256 473.949 82.502 C 479.217 75.593 487.189 67.011 493.966 61.573 C 503.095 54.249 516.747 46.261 527.495 41.629 C 536.078 37.930 548.435 35.540 557.409 32.931 C 557.409 32.931 557.409 32.931 557.409 32.931 C 549.981 40.359 539.019 49.337 532.649 57.689 C 525.717 66.778 518.339 80.322 513.872 90.843 C 508.589 103.286 503.720 120.810 501.254 134.102 C 498.111 151.049 496.620 174.145 496.777 191.380 C 496.970 212.672 499.906 241.079 503.860 262.001 C 507.457 281.035 514.909 305.878 521.203 324.198 C 531.339 353.701 547.929 391.955 561.285 420.147 C 569.985 438.513 592.884 480.061 592.887 480.067 C 592.887 480.067 592.887 480.067 592.887 480.067 C 585.256 479.385 567.454 477.792 567.451 477.792 "/>
    <path fill="#f6f4db" fill-rule="evenodd" stroke="none" d="M 688.362 376.138 C 680.726 408.020 667.899 449.845 659.129 481.434 C 659.126 481.434 634.423 481.566 623.835 481.623 C 615.307 450.517 603.087 409.263 595.408 377.937 C 594.411 373.870 593.200 368.417 592.356 364.314 C 589.135 348.675 585.177 327.745 582.770 311.961 C 578.540 284.219 572.843 247.111 571.751 219.069 C 570.755 193.497 571.955 159.231 575.056 133.828 C 577.286 115.569 581.989 91.370 587.177 73.722 C 590.118 63.719 594.545 50.392 599.542 41.241 C 602.156 36.455 606.935 30.884 610.103 26.445 C 613.233 23.697 617.111 19.652 620.537 17.284 C 623.668 15.120 628.037 12.251 631.722 11.300 C 637.365 9.844 645.552 9.819 651.148 11.446 C 657.787 13.377 665.672 18.974 670.574 23.852 C 676.918 30.165 682.557 41.049 686.467 49.101 C 691.500 59.464 696.288 74.188 699.152 85.347 C 703.410 101.937 706.559 124.671 708.184 141.722 C 709.541 155.970 709.791 175.091 709.777 189.404 C 709.758 208.884 708.931 234.878 707.340 254.294 C 705.358 278.483 701.099 310.608 697.019 334.533 C 694.875 347.100 691.331 363.740 688.362 376.138 M 610.103 26.445 C 610.103 26.445 610.103 26.445 610.103 26.445 M 623.835 481.623 C 623.835 481.623 623.835 481.623 623.835 481.623 Z"/>
    <path fill="none" stroke="#f6f4db" stroke-width="1" stroke-linecap="round" stroke-linejoin="round" d="M 659.129 481.434 C 659.129 481.434 659.129 481.434 659.129 481.434 C 667.899 449.845 680.726 408.020 688.362 376.138 C 691.331 363.740 694.875 347.100 697.019 334.533 C 701.099 310.608 705.358 278.483 707.340 254.294 C 708.931 234.878 709.758 208.884 709.777 189.404 C 709.791 175.091 709.541 155.970 708.184 141.722 C 706.559 124.671 703.410 101.937 699.152 85.347 C 696.288 74.188 691.500 59.464 686.467 49.101 C 682.557 41.049 676.918 30.165 670.574 23.852 C 665.672 18.974 657.787 13.377 651.148 11.446 C 645.552 9.819 637.365 9.844 631.722 11.300 C 628.037 12.251 623.668 15.120 620.537 17.284 C 617.111 19.652 613.233 23.697 610.103 26.445 C 610.103 26.445 610.103 26.445 610.103 26.445 C 606.935 30.884 602.156 36.455 599.542 41.241 C 594.545 50.392 590.118 63.719 587.177 73.722 C 581.989 91.370 577.286 115.569 575.056 133.828 C 571.955 159.231 570.755 193.497 571.751 219.069 C 572.843 247.111 578.540 284.219 582.770 311.961 C 585.177 327.745 589.135 348.675 592.356 364.314 C 593.200 368.417 594.411 373.870 595.408 377.937 C 603.087 409.263 615.307 450.517 623.835 481.623 C 623.835 481.623 623.835 481.623 623.835 481.623 C 634.423 481.566 659.126 481.434 659.129 481.434 "/>
    <path fill="none" stroke="#100104" stroke-width="1" stroke-linecap="round" stroke-linejoin="round" d="M 621.221 576.415 C 621.221 567.728 620.741 559.030 620.741 550.374 M 613.164 550.901 C 613.164 552.862 614.766 555.386 615.434 557.254 C 617.375 562.679 621.077 571.002 621.077 576.703 C 622.578 573.700 622.570 569.362 623.316 566.260 C 624.546 561.143 626.566 555.757 628.702 550.949 "/>
    <path fill="none" stroke="#100104" stroke-width="1" stroke-linecap="round" stroke-linejoin="round" d="M 656.603 576.599 C 656.603 567.912 656.123 559.214 656.123 550.558 M 648.546 551.085 C 648.744 553.287 650.916 555.908 651.736 557.990 C 653.764 563.147 656.532 571.403 656.459 576.886 C 658.000 573.904 657.952 569.545 658.698 566.444 C 659.928 561.326 661.948 555.941 664.084 551.133 "/>
    <path fill="#100104" fill-rule="evenodd" stroke="none" d="M 666.095 575.955 C 666.095 575.955 666.095 575.955 666.095 575.955 C 666.095 575.955 666.095 575.955 666.095 575.955 C 649.776 576.031 628.016 576.133 611.697 576.210 C 611.697 576.210 611.697 576.210 611.697 576.210 C 609.213 587.599 603.417 614.169 603.417 614.173 C 604.869 614.288 608.257 614.555 608.258 614.555 C 610.398 605.459 613.251 593.331 615.392 584.235 C 615.392 584.235 615.392 584.235 615.392 584.235 C 629.494 584.197 662.396 584.108 662.400 584.108 C 664.349 592.249 668.897 611.240 668.897 611.243 C 670.044 611.128 672.719 610.861 672.719 610.861 C 670.732 600.389 666.095 575.958 666.095 575.955 C 666.095 575.955 666.095 575.955 666.095 575.955 Z"/>
    <path fill="none" stroke="#100104" stroke-width="1" stroke-linecap="round" stroke-linejoin="round" d="M 603.417 614.173 C 603.417 614.173 603.417 614.173 603.417 614.173 C 603.417 614.169 609.213 587.599 611.697 576.210 C 628.016 576.133 649.776 576.031 666.095 575.955 C 666.095 575.955 666.095 575.955 666.095 575.955 C 666.095 575.955 666.095 575.955 666.095 575.955 C 666.095 575.958 670.732 600.389 672.719 610.861 C 672.719 610.861 672.719 610.861 672.719 610.861 C 672.719 610.861 670.044 611.128 668.897 611.243 C 668.897 611.243 668.897 611.243 668.897 611.243 C 668.897 611.240 664.349 592.249 662.400 584.108 C 662.400 584.108 662.400 584.108 662.400 584.108 C 662.396 584.108 629.494 584.197 615.392 584.235 C 613.251 593.331 610.398 605.459 608.258 614.555 C 608.258 614.555 608.258 614.555 608.258 614.555 C 608.257 614.555 604.869 614.288 603.417 614.173 M 611.697 576.210 C 611.697 576.210 611.697 576.210 611.697 576.210 M 615.392 584.235 C 615.392 584.235 615.392 584.235 615.392 584.235 M 666.095 575.955 C 666.095 575.955 666.095 575.955 666.095 575.955 "/>
    <path fill="#f36744" fill-rule="evenodd" stroke="#f36744" stroke-width="1" stroke-linecap="round" stroke-linejoin="round" d="M 620.105 575.573 C 620.109 575.573 658.320 575.573 658.324 575.573 C 658.324 575.573 658.324 584.489 658.324 584.490 C 658.320 584.490 620.109 584.490 620.105 584.490 C 620.105 584.489 620.105 575.573 620.105 575.573 Z"/>
    <path fill="#46261b" fill-rule="evenodd" stroke="none" d="M 676.205 607.596 C 678.975 607.212 682.585 606.230 685.320 605.644 C 685.320 605.644 686.758 606.086 687.272 606.457 C 688.144 607.087 688.867 608.394 689.551 609.224 C 689.551 609.228 689.368 637.137 689.551 649.098 C 689.609 652.929 689.799 658.035 689.905 661.866 C 689.905 661.866 689.292 665.820 688.574 667.355 C 687.008 670.700 683.827 674.720 680.923 677.002 C 678.834 678.643 675.334 679.680 672.938 680.828 C 672.932 680.828 625.898 681.294 605.738 681.493 C 605.190 681.294 604.435 681.082 603.909 680.828 C 601.380 679.605 598.146 677.587 596.091 675.672 C 594.112 673.827 591.761 670.963 590.602 668.519 C 589.917 667.076 589.671 664.909 589.272 663.363 C 589.271 663.357 588.573 625.288 588.273 608.971 C 588.922 608.172 589.615 606.929 590.436 606.309 C 590.958 605.915 591.825 605.677 592.421 605.407 C 598.465 606.308 606.480 607.895 612.569 608.411 C 623.711 609.354 638.660 609.113 649.840 608.899 C 657.758 608.747 668.361 608.685 676.205 607.596 M 592.421 605.407 C 592.421 605.407 592.421 605.407 592.421 605.407 M 605.738 681.493 C 605.738 681.493 605.738 681.493 605.738 681.493 Z"/>
    <path fill="none" stroke="#46261b" stroke-width="1" stroke-linecap="round" stroke-linejoin="round" d="M 685.320 605.644 C 685.320 605.644 685.320 605.644 685.320 605.644 C 682.585 606.230 678.975 607.212 676.205 607.596 C 668.361 608.685 657.758 608.747 649.840 608.899 C 638.660 609.113 623.711 609.354 612.569 608.411 C 606.480 607.895 598.465 606.308 592.421 605.407 C 592.421 605.407 592.421 605.407 592.421 605.407 C 591.825 605.677 590.958 605.915 590.436 606.309 C 589.615 606.929 588.922 608.172 588.273 608.971 C 588.273 608.971 588.273 608.971 588.273 608.971 C 588.273 608.971 588.273 608.971 588.273 608.971 C 588.573 625.288 589.271 663.357 589.272 663.363 C 589.272 663.363 589.272 663.363 589.272 663.363 C 589.671 664.909 589.917 667.076 590.602 668.519 C 591.761 670.963 594.112 673.827 596.091 675.672 C 598.146 677.587 601.380 679.605 603.909 680.828 C 604.435 681.082 605.190 681.294 605.738 681.493 C 605.738 681.493 605.738 681.493 605.738 681.493 C 625.898 681.294 672.932 680.828 672.938 680.828 C 672.938 680.828 672.938 680.828 672.938 680.828 C 675.334 679.680 678.834 678.643 680.923 677.002 C 683.827 674.720 687.008 670.700 688.574 667.355 C 689.292 665.820 689.905 661.866 689.905 661.866 C 689.905 661.866 689.905 661.866 689.905 661.866 C 689.799 658.035 689.609 652.929 689.551 649.098 C 689.368 637.137 689.551 609.228 689.551 609.224 C 689.551 609.224 689.551 609.224 689.551 609.224 C 688.867 608.394 688.144 607.087 687.272 606.457 C 686.758 606.086 685.320 605.644 685.320 605.644 "/>
    <path fill="none" stroke="#aba29b" stroke-width="3" stroke-linecap="round" stroke-linejoin="round" d="M 678.322 622.110 C 678.322 622.110 681.977 624.673 683.782 625.212 C 685.249 625.650 687.344 625.473 688.870 625.585 C 688.870 625.585 688.870 625.585 688.870 625.585 M 598.151 622.234 C 598.152 622.234 604.871 625.660 607.955 626.578 C 610.812 627.427 614.783 628.028 617.759 628.191 C 620.067 628.317 623.182 628.243 625.453 627.819 C 628.196 627.307 631.888 626.301 634.265 624.840 C 635.567 624.040 637.988 621.365 637.988 621.365 C 641.041 622.780 644.974 625.013 648.164 626.081 C 650.083 626.723 652.731 627.349 654.742 627.570 C 657.703 627.896 661.710 627.777 664.670 627.446 C 666.862 627.202 669.813 626.755 671.868 625.957 C 673.969 625.141 676.386 623.264 678.322 622.110 C 678.322 622.110 678.322 622.110 678.322 622.110 M 588.098 625.585 C 588.099 625.585 593.034 625.658 594.924 624.840 C 596.066 624.346 597.183 623.016 598.151 622.234 C 598.151 622.234 598.151 622.234 598.151 622.234 "/>
    <path fill="#f26645" fill-rule="evenodd" stroke="none" d="M 677.691 622.234 C 677.983 622.623 677.751 623.854 677.751 623.854 C 675.428 625.204 671.989 626.539 670.009 628.355 C 667.827 630.357 665.300 633.646 664.368 636.457 C 663.704 638.459 663.610 641.407 664.008 643.479 C 664.362 645.323 665.406 647.721 666.588 649.180 C 668.214 651.187 671.157 653.353 673.610 654.161 C 676.363 655.068 680.552 655.285 683.272 654.281 C 684.802 653.717 686.406 652.076 687.501 650.868 C 689.147 649.054 691.266 646.354 691.897 643.987 C 692.529 641.620 692.334 638.140 691.515 635.831 C 690.597 633.244 687.973 630.449 686.036 628.504 C 684.458 626.919 680.111 623.980 680.110 623.980 C 680.110 623.330 680.110 621.814 680.110 621.814 C 680.263 621.776 680.488 621.772 680.620 621.686 C 681.721 620.974 683.080 619.218 682.850 617.927 C 682.628 616.684 680.842 615.482 679.600 615.251 C 678.679 615.079 677.284 615.496 676.606 616.143 C 675.818 616.894 675.254 618.515 675.459 619.584 C 675.650 620.584 676.824 621.567 677.625 622.196 C 677.643 622.210 677.677 622.215 677.691 622.234 Z"/>
    <path fill="none" stroke="#f26645" stroke-width="0" stroke-linecap="round" stroke-linejoin="round" d="M 677.691 622.234 C 677.983 622.623 677.751 623.854 677.751 623.854 C 677.751 623.854 677.751 623.854 677.751 623.854 C 675.428 625.204 671.989 626.539 670.009 628.355 C 667.827 630.357 665.300 633.646 664.368 636.457 C 663.704 638.459 663.610 641.407 664.008 643.479 C 664.362 645.323 665.406 647.721 666.588 649.180 C 668.214 651.187 671.157 653.353 673.610 654.161 C 676.363 655.068 680.552 655.285 683.272 654.281 C 684.802 653.717 686.406 652.076 687.501 650.868 C 689.147 649.054 691.266 646.354 691.897 643.987 C 692.529 641.620 692.334 638.140 691.515 635.831 C 690.597 633.244 687.973 630.449 686.036 628.504 C 684.458 626.919 680.111 623.980 680.110 623.980 C 680.110 623.980 680.110 623.980 680.110 623.980 C 680.110 623.330 680.110 621.814 680.110 621.814 C 680.263 621.776 680.488 621.772 680.620 621.686 C 681.721 620.974 683.080 619.218 682.850 617.927 C 682.628 616.684 680.842 615.482 679.600 615.251 C 678.679 615.079 677.284 615.496 676.606 616.143 C 675.818 616.894 675.254 618.515 675.459 619.584 C 675.650 620.584 676.824 621.567 677.625 622.196 C 677.643 622.210 677.677 622.215 677.691 622.234 M 680.110 621.814 C 680.110 621.814 680.110 621.814 680.110 621.814 "/>
    <path fill="#f26645" fill-rule="evenodd" stroke="none" d="M 638.442 622.565 C 638.734 622.954 638.502 624.185 638.502 624.185 C 636.179 625.535 632.739 626.870 630.760 628.686 C 628.577 630.689 626.050 633.977 625.118 636.788 C 624.455 638.791 624.361 641.739 624.758 643.810 C 625.113 645.654 626.157 648.053 627.339 649.511 C 628.965 651.518 631.908 653.684 634.361 654.492 C 637.114 655.400 641.303 655.616 644.023 654.612 C 645.553 654.048 647.157 652.407 648.252 651.199 C 649.898 649.385 652.017 646.685 652.648 644.318 C 653.280 641.952 653.085 638.471 652.266 636.162 C 651.348 633.576 648.723 630.780 646.787 628.835 C 645.208 627.250 640.862 624.312 640.861 624.311 C 640.861 623.661 640.861 622.145 640.861 622.145 C 641.014 622.107 641.239 622.103 641.371 622.018 C 642.472 621.305 643.831 619.549 643.601 618.258 C 643.379 617.015 641.593 615.813 640.351 615.582 C 639.430 615.411 638.035 615.827 637.357 616.474 C 636.569 617.225 636.005 618.846 636.210 619.915 C 636.401 620.915 637.575 621.899 638.376 622.527 C 638.394 622.541 638.428 622.547 638.442 622.565 Z"/>
    <path fill="none" stroke="#f26645" stroke-width="0" stroke-linecap="round" stroke-linejoin="round" d="M 638.442 622.565 C 638.734 622.954 638.502 624.185 638.502 624.185 C 638.502 624.185 638.502 624.185 638.502 624.185 C 636.179 625.535 632.739 626.870 630.760 628.686 C 628.577 630.689 626.050 633.977 625.118 636.788 C 624.455 638.791 624.361 641.739 624.758 643.810 C 625.113 645.654 626.157 648.053 627.339 649.511 C 628.965 651.518 631.908 653.684 634.361 654.492 C 637.114 655.400 641.303 655.616 644.023 654.612 C 645.553 654.048 647.157 652.407 648.252 651.199 C 649.898 649.385 652.017 646.685 652.648 644.318 C 653.280 641.952 653.085 638.471 652.266 636.162 C 651.348 633.576 648.723 630.780 646.787 628.835 C 645.208 627.250 640.862 624.312 640.861 624.311 C 640.861 624.311 640.861 624.311 640.861 624.311 C 640.861 623.661 640.861 622.145 640.861 622.145 C 641.014 622.107 641.239 622.103 641.371 622.018 C 642.472 621.305 643.831 619.549 643.601 618.258 C 643.379 617.015 641.593 615.813 640.351 615.582 C 639.430 615.411 638.035 615.827 637.357 616.474 C 636.569 617.225 636.005 618.846 636.210 619.915 C 636.401 620.915 637.575 621.899 638.376 622.527 C 638.394 622.541 638.428 622.547 638.442 622.565 M 640.861 622.145 C 640.861 622.145 640.861 622.145 640.861 622.145 "/>
    <path fill="#f26645" fill-rule="evenodd" stroke="none" d="M 598.862 622.399 C 599.154 622.788 598.921 624.019 598.921 624.020 C 596.599 625.370 593.159 626.704 591.180 628.521 C 588.997 630.523 586.470 633.811 585.538 636.623 C 584.874 638.625 584.780 641.573 585.178 643.644 C 585.532 645.488 586.577 647.887 587.759 649.346 C 589.384 651.353 592.327 653.518 594.780 654.327 C 597.534 655.234 601.723 655.450 604.443 654.447 C 605.972 653.882 607.576 652.241 608.672 651.034 C 610.318 649.219 612.436 646.519 613.068 644.153 C 613.700 641.786 613.505 638.305 612.686 635.997 C 611.768 633.410 609.143 630.615 607.206 628.670 C 605.628 627.085 601.281 624.146 601.281 624.146 C 601.281 623.496 601.281 621.980 601.281 621.979 C 601.434 621.941 601.658 621.938 601.791 621.852 C 602.891 621.139 604.251 619.383 604.020 618.093 C 603.799 616.849 602.012 615.647 600.771 615.416 C 599.849 615.245 598.455 615.662 597.776 616.308 C 596.989 617.059 596.425 618.681 596.629 619.749 C 596.820 620.749 597.994 621.734 598.796 622.361 C 598.814 622.376 598.848 622.381 598.862 622.399 Z"/>
    <path fill="none" stroke="#f26645" stroke-width="0" stroke-linecap="round" stroke-linejoin="round" d="M 598.862 622.399 C 599.154 622.788 598.921 624.019 598.921 624.020 C 598.921 624.020 598.921 624.020 598.921 624.020 C 596.599 625.370 593.159 626.704 591.180 628.521 C 588.997 630.523 586.470 633.811 585.538 636.623 C 584.874 638.625 584.780 641.573 585.178 643.644 C 585.532 645.488 586.577 647.887 587.759 649.346 C 589.384 651.353 592.327 653.518 594.780 654.327 C 597.534 655.234 601.723 655.450 604.443 654.447 C 605.972 653.882 607.576 652.241 608.672 651.034 C 610.318 649.219 612.436 646.519 613.068 644.153 C 613.700 641.786 613.505 638.305 612.686 635.997 C 611.768 633.410 609.143 630.615 607.206 628.670 C 605.628 627.085 601.281 624.146 601.281 624.146 C 601.281 624.146 601.281 624.146 601.281 624.146 C 601.281 623.496 601.281 621.980 601.281 621.979 C 601.434 621.941 601.658 621.938 601.791 621.852 C 602.891 621.139 604.251 619.383 604.020 618.093 C 603.799 616.849 602.012 615.647 600.771 615.416 C 599.849 615.245 598.455 615.662 597.776 616.308 C 596.989 617.059 596.425 618.681 596.629 619.749 C 596.820 620.749 597.994 621.734 598.796 622.361 C 598.814 622.376 598.848 622.381 598.862 622.399 M 601.281 621.979 C 601.281 621.979 601.281 621.979 601.281 621.979 "/>
    <path fill="#014715" fill-rule="evenodd" stroke="none" d="M 727.306 471.610 C 729.991 470.926 733.415 469.490 736.033 468.581 C 736.028 468.589 696.001 524.479 678.845 548.436 C 678.844 548.436 676.296 550.685 675.203 551.649 C 675.196 551.649 625.570 551.949 604.298 552.077 C 604.298 552.077 601.899 551.028 600.871 550.578 C 600.865 550.570 558.793 493.407 540.759 468.905 C 557.409 471.413 579.499 475.653 596.259 477.263 C 614.503 479.015 638.976 480.152 657.299 479.774 C 664.503 479.626 674.086 478.780 681.252 478.036 C 695.127 476.595 713.787 475.054 727.306 471.610 M 540.759 468.905 C 540.759 468.905 540.759 468.905 540.759 468.905 Z"/>
    <path fill="none" stroke="#014715" stroke-width="1" stroke-linecap="round" stroke-linejoin="round" d="M 736.033 468.581 C 736.033 468.581 736.033 468.581 736.033 468.581 C 733.415 469.490 729.991 470.926 727.306 471.610 C 713.787 475.054 695.127 476.595 681.252 478.036 C 674.086 478.780 664.503 479.626 657.299 479.774 C 638.976 480.152 614.503 479.015 596.259 477.263 C 579.499 475.653 557.409 471.413 540.759 468.905 C 540.759 468.905 540.759 468.905 540.759 468.905 C 558.793 493.407 600.865 550.570 600.871 550.578 C 600.871 550.578 600.871 550.578 600.871 550.578 C 601.899 551.028 604.298 552.077 604.298 552.077 C 604.298 552.077 604.298 552.077 604.298 552.077 C 625.570 551.949 675.196 551.649 675.203 551.649 C 675.203 551.649 675.203 551.649 675.203 551.649 C 676.296 550.685 678.844 548.436 678.845 548.436 C 678.845 548.436 678.845 548.436 678.845 548.436 C 696.001 524.479 736.028 468.589 736.033 468.581 "/>
  </g>
</svg>