<?xml version="1.0" encoding="utf-8"?>
<svg viewBox="339.5972 159.9985 360.004 180" xmlns="http://www.w3.org/2000/svg">
  <path d="M 299.75 60.587 C 295.642 60.587 291.627 60.998 287.749 61.775 C 275.799 25.9 241.719 0 201.519 0 C 167.758 0 138.323 18.27 122.672 45.363 C 121.753 45.327 120.832 45.293 119.903 45.293 C 96.409 45.293 75.701 57.109 63.494 75.07 C 60.231 74.453 56.867 74.117 53.423 74.117 C 23.92 74.117 0.003 97.819 0.003 127.06 C 0.003 156.3 23.92 180 53.424 180 L 119.859 180 L 119.904 180 L 119.949 180 L 201.474 180 L 201.519 180 L 201.566 180 L 299.711 180 L 299.757 180 C 333.037 180 360.007 153.27 360.007 120.29 C 360.007 94.861 343.966 73.145 321.361 64.539 C 314.655 61.986 307.371 60.587 299.757 60.587 L 299.75 60.587 Z" fill="#FFFFFF" style="" transform="matrix(0.9999999999999999, 0, 0, 0.9999999999999999, 339.5942077636718, 159.99848937988278)"/>
</svg>